<mxfile host="app.diagrams.net" agent="Mozilla/5.0 (Windows NT 10.0; Win64; x64) AppleWebKit/537.36 (KHTML, like Gecko) Chrome/132.0.0.0 Safari/537.36" version="28.0.6">
  <diagram name="Page-1" id="JCikfYJ7XOa-H9zsAO5w">
    <mxGraphModel dx="5018" dy="2248" grid="1" gridSize="10" guides="1" tooltips="1" connect="1" arrows="1" fold="1" page="1" pageScale="1" pageWidth="850" pageHeight="1100" math="0" shadow="0">
      <root>
        <mxCell id="0" />
        <mxCell id="1" parent="0" />
        <mxCell id="XJO1JK6r1yaedONheBAu-2" value="START" style="ellipse;whiteSpace=wrap;html=1;" vertex="1" parent="1">
          <mxGeometry x="365" y="70" width="120" height="80" as="geometry" />
        </mxCell>
        <mxCell id="XJO1JK6r1yaedONheBAu-3" value="" style="endArrow=classic;html=1;rounded=0;exitX=0.5;exitY=1;exitDx=0;exitDy=0;" edge="1" parent="1" source="XJO1JK6r1yaedONheBAu-2">
          <mxGeometry width="50" height="50" relative="1" as="geometry">
            <mxPoint x="400" y="210" as="sourcePoint" />
            <mxPoint x="425" y="200" as="targetPoint" />
          </mxGeometry>
        </mxCell>
        <mxCell id="XJO1JK6r1yaedONheBAu-17" style="edgeStyle=orthogonalEdgeStyle;rounded=0;orthogonalLoop=1;jettySize=auto;html=1;" edge="1" parent="1" source="XJO1JK6r1yaedONheBAu-5" target="XJO1JK6r1yaedONheBAu-12">
          <mxGeometry relative="1" as="geometry" />
        </mxCell>
        <mxCell id="XJO1JK6r1yaedONheBAu-5" value="การทำงานของตู้ขายน้ำ ตะพาบอย" style="rounded=0;whiteSpace=wrap;html=1;" vertex="1" parent="1">
          <mxGeometry x="365" y="200" width="125" height="60" as="geometry" />
        </mxCell>
        <mxCell id="XJO1JK6r1yaedONheBAu-18" style="edgeStyle=orthogonalEdgeStyle;rounded=0;orthogonalLoop=1;jettySize=auto;html=1;" edge="1" parent="1" source="XJO1JK6r1yaedONheBAu-12">
          <mxGeometry relative="1" as="geometry">
            <mxPoint x="427.5" y="390" as="targetPoint" />
          </mxGeometry>
        </mxCell>
        <mxCell id="XJO1JK6r1yaedONheBAu-12" value="เเเสดงรายการสินค้า&lt;div&gt;เครื่องดื่ม/ของทานเล่น&lt;/div&gt;" style="rounded=0;whiteSpace=wrap;html=1;" vertex="1" parent="1">
          <mxGeometry x="367.5" y="290" width="120" height="60" as="geometry" />
        </mxCell>
        <mxCell id="XJO1JK6r1yaedONheBAu-25" style="edgeStyle=orthogonalEdgeStyle;rounded=0;orthogonalLoop=1;jettySize=auto;html=1;" edge="1" parent="1" source="XJO1JK6r1yaedONheBAu-19" target="XJO1JK6r1yaedONheBAu-21">
          <mxGeometry relative="1" as="geometry" />
        </mxCell>
        <mxCell id="XJO1JK6r1yaedONheBAu-19" value="&lt;div&gt;รายการเครื่องดื่ม&lt;/div&gt;โค้กกระป๋อง 10 บาท&lt;div&gt;น้ำปล่าว 12 บาท&lt;/div&gt;&lt;div&gt;อเมริกาโน่ 30 บาท&lt;/div&gt;&lt;div&gt;ลาเต้หวานเจี๊ยบ 35 บาท&lt;/div&gt;" style="rounded=0;whiteSpace=wrap;html=1;" vertex="1" parent="1">
          <mxGeometry x="335" y="390" width="180" height="80" as="geometry" />
        </mxCell>
        <mxCell id="XJO1JK6r1yaedONheBAu-26" style="edgeStyle=orthogonalEdgeStyle;rounded=0;orthogonalLoop=1;jettySize=auto;html=1;" edge="1" parent="1" source="XJO1JK6r1yaedONheBAu-21">
          <mxGeometry relative="1" as="geometry">
            <mxPoint x="425" y="600" as="targetPoint" />
          </mxGeometry>
        </mxCell>
        <mxCell id="XJO1JK6r1yaedONheBAu-21" value="รายการของทานเล่น&lt;div&gt;เมล็ดทานตะวัน 13 บาท&lt;/div&gt;&lt;div&gt;ถั่วเเปบ 20 บาท&lt;/div&gt;&lt;div&gt;จิ้นส้มหมก 15 บาท&lt;/div&gt;" style="rounded=0;whiteSpace=wrap;html=1;" vertex="1" parent="1">
          <mxGeometry x="355" y="500" width="140" height="60" as="geometry" />
        </mxCell>
        <mxCell id="XJO1JK6r1yaedONheBAu-29" style="edgeStyle=orthogonalEdgeStyle;rounded=0;orthogonalLoop=1;jettySize=auto;html=1;" edge="1" parent="1" source="XJO1JK6r1yaedONheBAu-24">
          <mxGeometry relative="1" as="geometry">
            <mxPoint x="425.5" y="780" as="targetPoint" />
          </mxGeometry>
        </mxCell>
        <mxCell id="XJO1JK6r1yaedONheBAu-24" value="ตัวเเปร&lt;div&gt;โค้กกระป๋อง=cola&lt;/div&gt;&lt;div&gt;น้ำปล่าว=water&lt;/div&gt;&lt;div&gt;อเมริกาโน่=Americano&lt;/div&gt;&lt;div&gt;อเมริกาโน่=Sweet latte&lt;/div&gt;&lt;div&gt;&lt;div&gt;เมล็ดทานตะวัน=Sunflower seeds&lt;/div&gt;&lt;div&gt;ถั่วเเปบ=&amp;nbsp;Peanuts&lt;/div&gt;&lt;div&gt;จิ้นส้มหมก=Jinsom&amp;nbsp;&lt;/div&gt;&lt;/div&gt;" style="rounded=0;whiteSpace=wrap;html=1;" vertex="1" parent="1">
          <mxGeometry x="328" y="600" width="195" height="130" as="geometry" />
        </mxCell>
        <mxCell id="XJO1JK6r1yaedONheBAu-32" style="edgeStyle=orthogonalEdgeStyle;rounded=0;orthogonalLoop=1;jettySize=auto;html=1;" edge="1" parent="1" source="XJO1JK6r1yaedONheBAu-30">
          <mxGeometry relative="1" as="geometry">
            <mxPoint x="425" y="880" as="targetPoint" />
          </mxGeometry>
        </mxCell>
        <mxCell id="XJO1JK6r1yaedONheBAu-30" value="เลือกสินค้า" style="rounded=0;whiteSpace=wrap;html=1;" vertex="1" parent="1">
          <mxGeometry x="365" y="780" width="120" height="60" as="geometry" />
        </mxCell>
        <mxCell id="XJO1JK6r1yaedONheBAu-34" style="edgeStyle=orthogonalEdgeStyle;rounded=0;orthogonalLoop=1;jettySize=auto;html=1;" edge="1" parent="1" source="XJO1JK6r1yaedONheBAu-33">
          <mxGeometry relative="1" as="geometry">
            <mxPoint x="425.5" y="990" as="targetPoint" />
          </mxGeometry>
        </mxCell>
        <mxCell id="XJO1JK6r1yaedONheBAu-33" value="สินค้าที่ลูกค้าเลือก" style="rounded=0;whiteSpace=wrap;html=1;" vertex="1" parent="1">
          <mxGeometry x="365.5" y="880" width="120" height="60" as="geometry" />
        </mxCell>
        <mxCell id="XJO1JK6r1yaedONheBAu-38" style="edgeStyle=orthogonalEdgeStyle;rounded=0;orthogonalLoop=1;jettySize=auto;html=1;" edge="1" parent="1">
          <mxGeometry relative="1" as="geometry">
            <mxPoint x="570" y="1130" as="targetPoint" />
            <mxPoint x="495" y="1030" as="sourcePoint" />
            <Array as="points">
              <mxPoint x="495" y="1031" />
              <mxPoint x="570" y="1031" />
            </Array>
          </mxGeometry>
        </mxCell>
        <mxCell id="XJO1JK6r1yaedONheBAu-36" value="เลือกโค้ก" style="rhombus;whiteSpace=wrap;html=1;" vertex="1" parent="1">
          <mxGeometry x="360" y="990" width="135.5" height="80" as="geometry" />
        </mxCell>
        <mxCell id="XJO1JK6r1yaedONheBAu-40" value="ไม่" style="text;html=1;align=center;verticalAlign=middle;resizable=0;points=[];autosize=1;strokeColor=none;fillColor=none;" vertex="1" parent="1">
          <mxGeometry x="300" y="1008" width="40" height="30" as="geometry" />
        </mxCell>
        <mxCell id="XJO1JK6r1yaedONheBAu-41" value="ใช่" style="text;html=1;align=center;verticalAlign=middle;resizable=0;points=[];autosize=1;strokeColor=none;fillColor=none;" vertex="1" parent="1">
          <mxGeometry x="500.5" y="1008" width="40" height="30" as="geometry" />
        </mxCell>
        <mxCell id="XJO1JK6r1yaedONheBAu-51" value="" style="endArrow=classic;html=1;rounded=0;exitX=0;exitY=0.5;exitDx=0;exitDy=0;" edge="1" parent="1" source="XJO1JK6r1yaedONheBAu-36">
          <mxGeometry width="50" height="50" relative="1" as="geometry">
            <mxPoint x="370" y="1190" as="sourcePoint" />
            <mxPoint x="270" y="1130" as="targetPoint" />
            <Array as="points">
              <mxPoint x="270" y="1030" />
            </Array>
          </mxGeometry>
        </mxCell>
        <mxCell id="XJO1JK6r1yaedONheBAu-52" value="เลือกน้ำเปล่า" style="rhombus;whiteSpace=wrap;html=1;" vertex="1" parent="1">
          <mxGeometry x="220" y="1130" width="100" height="80" as="geometry" />
        </mxCell>
        <mxCell id="XJO1JK6r1yaedONheBAu-107" style="edgeStyle=orthogonalEdgeStyle;rounded=0;orthogonalLoop=1;jettySize=auto;html=1;" edge="1" parent="1" source="XJO1JK6r1yaedONheBAu-53">
          <mxGeometry relative="1" as="geometry">
            <mxPoint x="575" y="1850" as="targetPoint" />
          </mxGeometry>
        </mxCell>
        <mxCell id="XJO1JK6r1yaedONheBAu-53" value="ตัวแปรสินค้าที่เลือกจะเป็น Cola" style="rounded=0;whiteSpace=wrap;html=1;" vertex="1" parent="1">
          <mxGeometry x="515" y="1130" width="120" height="60" as="geometry" />
        </mxCell>
        <mxCell id="XJO1JK6r1yaedONheBAu-56" value="ไม่" style="text;html=1;align=center;verticalAlign=middle;resizable=0;points=[];autosize=1;strokeColor=none;fillColor=none;" vertex="1" parent="1">
          <mxGeometry x="150" y="1145" width="40" height="30" as="geometry" />
        </mxCell>
        <mxCell id="XJO1JK6r1yaedONheBAu-57" value="" style="endArrow=classic;html=1;rounded=0;exitX=0;exitY=0.5;exitDx=0;exitDy=0;" edge="1" parent="1" source="XJO1JK6r1yaedONheBAu-52">
          <mxGeometry width="50" height="50" relative="1" as="geometry">
            <mxPoint x="370" y="1190" as="sourcePoint" />
            <mxPoint x="120" y="1250" as="targetPoint" />
            <Array as="points">
              <mxPoint x="120" y="1170" />
            </Array>
          </mxGeometry>
        </mxCell>
        <mxCell id="XJO1JK6r1yaedONheBAu-59" value="" style="endArrow=classic;html=1;rounded=0;exitX=1;exitY=0.5;exitDx=0;exitDy=0;" edge="1" parent="1" source="XJO1JK6r1yaedONheBAu-52">
          <mxGeometry width="50" height="50" relative="1" as="geometry">
            <mxPoint x="370" y="1190" as="sourcePoint" />
            <mxPoint x="410" y="1250" as="targetPoint" />
            <Array as="points">
              <mxPoint x="370" y="1170" />
              <mxPoint x="410" y="1170" />
            </Array>
          </mxGeometry>
        </mxCell>
        <mxCell id="XJO1JK6r1yaedONheBAu-60" value="ใช่" style="text;html=1;align=center;verticalAlign=middle;resizable=0;points=[];autosize=1;strokeColor=none;fillColor=none;" vertex="1" parent="1">
          <mxGeometry x="340" y="1148" width="40" height="30" as="geometry" />
        </mxCell>
        <mxCell id="XJO1JK6r1yaedONheBAu-105" style="edgeStyle=orthogonalEdgeStyle;rounded=0;orthogonalLoop=1;jettySize=auto;html=1;" edge="1" parent="1" source="XJO1JK6r1yaedONheBAu-61">
          <mxGeometry relative="1" as="geometry">
            <mxPoint x="415" y="1850" as="targetPoint" />
          </mxGeometry>
        </mxCell>
        <mxCell id="XJO1JK6r1yaedONheBAu-61" value="ตัวแปรสินค้าที่เลือกจะเป็น Water" style="rounded=0;whiteSpace=wrap;html=1;" vertex="1" parent="1">
          <mxGeometry x="355" y="1250" width="120" height="60" as="geometry" />
        </mxCell>
        <mxCell id="XJO1JK6r1yaedONheBAu-62" value="เลือกอเมริกาโน่&amp;nbsp;" style="rhombus;whiteSpace=wrap;html=1;" vertex="1" parent="1">
          <mxGeometry x="70" y="1250" width="100" height="80" as="geometry" />
        </mxCell>
        <mxCell id="XJO1JK6r1yaedONheBAu-63" value="" style="endArrow=classic;html=1;rounded=0;exitX=1;exitY=0.5;exitDx=0;exitDy=0;" edge="1" parent="1" source="XJO1JK6r1yaedONheBAu-62">
          <mxGeometry width="50" height="50" relative="1" as="geometry">
            <mxPoint x="290" y="1330" as="sourcePoint" />
            <mxPoint x="260" y="1360" as="targetPoint" />
            <Array as="points">
              <mxPoint x="220" y="1290" />
              <mxPoint x="260" y="1290" />
            </Array>
          </mxGeometry>
        </mxCell>
        <mxCell id="XJO1JK6r1yaedONheBAu-64" value="ใช่" style="text;html=1;align=center;verticalAlign=middle;resizable=0;points=[];autosize=1;strokeColor=none;fillColor=none;" vertex="1" parent="1">
          <mxGeometry x="190" y="1265" width="40" height="30" as="geometry" />
        </mxCell>
        <mxCell id="XJO1JK6r1yaedONheBAu-65" value="" style="endArrow=classic;html=1;rounded=0;exitX=0;exitY=0.5;exitDx=0;exitDy=0;" edge="1" parent="1" source="XJO1JK6r1yaedONheBAu-62">
          <mxGeometry width="50" height="50" relative="1" as="geometry">
            <mxPoint x="140" y="1350" as="sourcePoint" />
            <mxPoint x="-10" y="1360" as="targetPoint" />
            <Array as="points">
              <mxPoint x="-10" y="1290" />
            </Array>
          </mxGeometry>
        </mxCell>
        <mxCell id="XJO1JK6r1yaedONheBAu-66" value="ไม่" style="text;html=1;align=center;verticalAlign=middle;resizable=0;points=[];autosize=1;strokeColor=none;fillColor=none;" vertex="1" parent="1">
          <mxGeometry y="1268" width="40" height="30" as="geometry" />
        </mxCell>
        <mxCell id="XJO1JK6r1yaedONheBAu-67" value="เลือกลาเต้หวานเจี๊ยบ" style="rhombus;whiteSpace=wrap;html=1;" vertex="1" parent="1">
          <mxGeometry x="-60" y="1360" width="100" height="80" as="geometry" />
        </mxCell>
        <mxCell id="XJO1JK6r1yaedONheBAu-103" style="edgeStyle=orthogonalEdgeStyle;rounded=0;orthogonalLoop=1;jettySize=auto;html=1;" edge="1" parent="1" source="XJO1JK6r1yaedONheBAu-68">
          <mxGeometry relative="1" as="geometry">
            <mxPoint x="260" y="1850" as="targetPoint" />
          </mxGeometry>
        </mxCell>
        <mxCell id="XJO1JK6r1yaedONheBAu-68" value="ตัวแปรสินค้าที่เลือกจะเป็น Americano" style="rounded=0;whiteSpace=wrap;html=1;" vertex="1" parent="1">
          <mxGeometry x="200" y="1360" width="120" height="60" as="geometry" />
        </mxCell>
        <mxCell id="XJO1JK6r1yaedONheBAu-73" value="" style="endArrow=classic;html=1;rounded=0;exitX=0;exitY=0.5;exitDx=0;exitDy=0;" edge="1" parent="1" source="XJO1JK6r1yaedONheBAu-67">
          <mxGeometry width="50" height="50" relative="1" as="geometry">
            <mxPoint x="30" y="1430" as="sourcePoint" />
            <mxPoint x="-260" y="1460" as="targetPoint" />
            <Array as="points">
              <mxPoint x="-140" y="1400" />
              <mxPoint x="-260" y="1400" />
            </Array>
          </mxGeometry>
        </mxCell>
        <mxCell id="XJO1JK6r1yaedONheBAu-74" value="" style="endArrow=classic;html=1;rounded=0;exitX=1;exitY=0.5;exitDx=0;exitDy=0;" edge="1" parent="1" source="XJO1JK6r1yaedONheBAu-67">
          <mxGeometry width="50" height="50" relative="1" as="geometry">
            <mxPoint x="30" y="1490" as="sourcePoint" />
            <mxPoint x="100" y="1450" as="targetPoint" />
            <Array as="points">
              <mxPoint x="100" y="1400" />
            </Array>
          </mxGeometry>
        </mxCell>
        <mxCell id="XJO1JK6r1yaedONheBAu-101" style="edgeStyle=orthogonalEdgeStyle;rounded=0;orthogonalLoop=1;jettySize=auto;html=1;" edge="1" parent="1" source="XJO1JK6r1yaedONheBAu-75">
          <mxGeometry relative="1" as="geometry">
            <mxPoint x="110" y="1850" as="targetPoint" />
          </mxGeometry>
        </mxCell>
        <mxCell id="XJO1JK6r1yaedONheBAu-75" value="ตัวแปรสินค้าที่เลือกจะเป็น Sweet Latea" style="rounded=0;whiteSpace=wrap;html=1;" vertex="1" parent="1">
          <mxGeometry x="50" y="1450" width="120" height="60" as="geometry" />
        </mxCell>
        <mxCell id="XJO1JK6r1yaedONheBAu-76" value="เลือกเมล็ดทานตะวัน" style="rhombus;whiteSpace=wrap;html=1;" vertex="1" parent="1">
          <mxGeometry x="-330" y="1460" width="140" height="80" as="geometry" />
        </mxCell>
        <mxCell id="XJO1JK6r1yaedONheBAu-77" value="ไม่" style="text;html=1;align=center;verticalAlign=middle;resizable=0;points=[];autosize=1;strokeColor=none;fillColor=none;" vertex="1" parent="1">
          <mxGeometry x="-180" y="1378" width="40" height="30" as="geometry" />
        </mxCell>
        <mxCell id="XJO1JK6r1yaedONheBAu-78" value="ใช่" style="text;html=1;align=center;verticalAlign=middle;resizable=0;points=[];autosize=1;strokeColor=none;fillColor=none;" vertex="1" parent="1">
          <mxGeometry x="50" y="1378" width="40" height="30" as="geometry" />
        </mxCell>
        <mxCell id="XJO1JK6r1yaedONheBAu-80" value="" style="endArrow=classic;html=1;rounded=0;exitX=1;exitY=0.5;exitDx=0;exitDy=0;" edge="1" parent="1" source="XJO1JK6r1yaedONheBAu-76">
          <mxGeometry width="50" height="50" relative="1" as="geometry">
            <mxPoint x="-160" y="1550" as="sourcePoint" />
            <mxPoint x="-100" y="1580" as="targetPoint" />
            <Array as="points">
              <mxPoint x="-100" y="1500" />
            </Array>
          </mxGeometry>
        </mxCell>
        <mxCell id="XJO1JK6r1yaedONheBAu-81" value="ใช่" style="text;html=1;align=center;verticalAlign=middle;resizable=0;points=[];autosize=1;strokeColor=none;fillColor=none;" vertex="1" parent="1">
          <mxGeometry x="-170" y="1480" width="40" height="30" as="geometry" />
        </mxCell>
        <mxCell id="XJO1JK6r1yaedONheBAu-98" style="edgeStyle=orthogonalEdgeStyle;rounded=0;orthogonalLoop=1;jettySize=auto;html=1;" edge="1" parent="1" source="XJO1JK6r1yaedONheBAu-83">
          <mxGeometry relative="1" as="geometry">
            <mxPoint x="-100" y="1850" as="targetPoint" />
          </mxGeometry>
        </mxCell>
        <mxCell id="XJO1JK6r1yaedONheBAu-83" value="ตัวแปรสินค้าที่เลือกจะเป็น Sunflower seeds" style="rounded=0;whiteSpace=wrap;html=1;" vertex="1" parent="1">
          <mxGeometry x="-160" y="1580" width="120" height="60" as="geometry" />
        </mxCell>
        <mxCell id="XJO1JK6r1yaedONheBAu-84" value="" style="endArrow=classic;html=1;rounded=0;exitX=0;exitY=0.5;exitDx=0;exitDy=0;" edge="1" parent="1" source="XJO1JK6r1yaedONheBAu-76">
          <mxGeometry width="50" height="50" relative="1" as="geometry">
            <mxPoint x="-340" y="1600" as="sourcePoint" />
            <mxPoint x="-440" y="1570" as="targetPoint" />
            <Array as="points">
              <mxPoint x="-440" y="1500" />
            </Array>
          </mxGeometry>
        </mxCell>
        <mxCell id="XJO1JK6r1yaedONheBAu-85" value="ไม่" style="text;html=1;align=center;verticalAlign=middle;resizable=0;points=[];autosize=1;strokeColor=none;fillColor=none;" vertex="1" parent="1">
          <mxGeometry x="-400" y="1480" width="40" height="30" as="geometry" />
        </mxCell>
        <mxCell id="XJO1JK6r1yaedONheBAu-87" value="เลือกถั่วแปบ" style="rhombus;whiteSpace=wrap;html=1;" vertex="1" parent="1">
          <mxGeometry x="-500" y="1570" width="120" height="80" as="geometry" />
        </mxCell>
        <mxCell id="XJO1JK6r1yaedONheBAu-88" value="" style="endArrow=classic;html=1;rounded=0;exitX=1;exitY=0.5;exitDx=0;exitDy=0;" edge="1" parent="1" source="XJO1JK6r1yaedONheBAu-87">
          <mxGeometry width="50" height="50" relative="1" as="geometry">
            <mxPoint x="-230" y="1670" as="sourcePoint" />
            <mxPoint x="-290" y="1680" as="targetPoint" />
            <Array as="points">
              <mxPoint x="-290" y="1610" />
            </Array>
          </mxGeometry>
        </mxCell>
        <mxCell id="XJO1JK6r1yaedONheBAu-97" style="edgeStyle=orthogonalEdgeStyle;rounded=0;orthogonalLoop=1;jettySize=auto;html=1;" edge="1" parent="1" source="XJO1JK6r1yaedONheBAu-89">
          <mxGeometry relative="1" as="geometry">
            <mxPoint x="-280" y="1850" as="targetPoint" />
          </mxGeometry>
        </mxCell>
        <mxCell id="XJO1JK6r1yaedONheBAu-89" value="ตัวแปรสินค้าที่เลือกจะเป็น&amp;nbsp; Peanuts" style="rounded=0;whiteSpace=wrap;html=1;" vertex="1" parent="1">
          <mxGeometry x="-340" y="1680" width="120" height="60" as="geometry" />
        </mxCell>
        <mxCell id="XJO1JK6r1yaedONheBAu-90" value="" style="endArrow=classic;html=1;rounded=0;exitX=0;exitY=0.5;exitDx=0;exitDy=0;" edge="1" parent="1" source="XJO1JK6r1yaedONheBAu-87">
          <mxGeometry width="50" height="50" relative="1" as="geometry">
            <mxPoint x="-370" y="1700" as="sourcePoint" />
            <mxPoint x="-600" y="1680" as="targetPoint" />
            <Array as="points">
              <mxPoint x="-600" y="1610" />
            </Array>
          </mxGeometry>
        </mxCell>
        <mxCell id="XJO1JK6r1yaedONheBAu-91" value="ไม่" style="text;html=1;align=center;verticalAlign=middle;resizable=0;points=[];autosize=1;strokeColor=none;fillColor=none;" vertex="1" parent="1">
          <mxGeometry x="-560" y="1588" width="40" height="30" as="geometry" />
        </mxCell>
        <mxCell id="XJO1JK6r1yaedONheBAu-92" value="ใช่" style="text;html=1;align=center;verticalAlign=middle;resizable=0;points=[];autosize=1;strokeColor=none;fillColor=none;" vertex="1" parent="1">
          <mxGeometry x="-360" y="1588" width="40" height="30" as="geometry" />
        </mxCell>
        <mxCell id="XJO1JK6r1yaedONheBAu-94" style="edgeStyle=orthogonalEdgeStyle;rounded=0;orthogonalLoop=1;jettySize=auto;html=1;" edge="1" parent="1" source="XJO1JK6r1yaedONheBAu-93">
          <mxGeometry relative="1" as="geometry">
            <mxPoint x="-600" y="1820" as="targetPoint" />
          </mxGeometry>
        </mxCell>
        <mxCell id="XJO1JK6r1yaedONheBAu-93" value="เลือกจิ้นส้มหมก" style="rhombus;whiteSpace=wrap;html=1;" vertex="1" parent="1">
          <mxGeometry x="-660" y="1680" width="120" height="80" as="geometry" />
        </mxCell>
        <mxCell id="XJO1JK6r1yaedONheBAu-96" style="edgeStyle=orthogonalEdgeStyle;rounded=0;orthogonalLoop=1;jettySize=auto;html=1;" edge="1" parent="1" source="XJO1JK6r1yaedONheBAu-95">
          <mxGeometry relative="1" as="geometry">
            <mxPoint x="-280" y="1850" as="targetPoint" />
          </mxGeometry>
        </mxCell>
        <mxCell id="XJO1JK6r1yaedONheBAu-95" value="ตัวแปรสินค้าที่เลือกจะเป็น Jinsom" style="rounded=0;whiteSpace=wrap;html=1;" vertex="1" parent="1">
          <mxGeometry x="-660" y="1820" width="120" height="60" as="geometry" />
        </mxCell>
        <mxCell id="XJO1JK6r1yaedONheBAu-99" value="" style="endArrow=classic;html=1;rounded=0;" edge="1" parent="1">
          <mxGeometry width="50" height="50" relative="1" as="geometry">
            <mxPoint x="-280" y="1850" as="sourcePoint" />
            <mxPoint x="-100" y="1850" as="targetPoint" />
            <Array as="points">
              <mxPoint x="-200" y="1850" />
            </Array>
          </mxGeometry>
        </mxCell>
        <mxCell id="XJO1JK6r1yaedONheBAu-102" value="" style="endArrow=classic;html=1;rounded=0;" edge="1" parent="1">
          <mxGeometry width="50" height="50" relative="1" as="geometry">
            <mxPoint x="-100" y="1850" as="sourcePoint" />
            <mxPoint x="110" y="1850" as="targetPoint" />
            <Array as="points">
              <mxPoint y="1850" />
            </Array>
          </mxGeometry>
        </mxCell>
        <mxCell id="XJO1JK6r1yaedONheBAu-104" value="" style="endArrow=classic;html=1;rounded=0;" edge="1" parent="1">
          <mxGeometry width="50" height="50" relative="1" as="geometry">
            <mxPoint x="120" y="1850" as="sourcePoint" />
            <mxPoint x="260" y="1850" as="targetPoint" />
            <Array as="points">
              <mxPoint x="180" y="1850" />
            </Array>
          </mxGeometry>
        </mxCell>
        <mxCell id="XJO1JK6r1yaedONheBAu-106" value="" style="endArrow=classic;html=1;rounded=0;" edge="1" parent="1">
          <mxGeometry width="50" height="50" relative="1" as="geometry">
            <mxPoint x="270" y="1850" as="sourcePoint" />
            <mxPoint x="420" y="1850" as="targetPoint" />
            <Array as="points">
              <mxPoint x="360" y="1850" />
            </Array>
          </mxGeometry>
        </mxCell>
        <mxCell id="XJO1JK6r1yaedONheBAu-108" value="" style="endArrow=classic;html=1;rounded=0;" edge="1" parent="1">
          <mxGeometry width="50" height="50" relative="1" as="geometry">
            <mxPoint x="420" y="1850" as="sourcePoint" />
            <mxPoint x="580" y="1850" as="targetPoint" />
            <Array as="points">
              <mxPoint x="480" y="1850" />
            </Array>
          </mxGeometry>
        </mxCell>
        <mxCell id="XJO1JK6r1yaedONheBAu-109" value="" style="endArrow=classic;html=1;rounded=0;" edge="1" parent="1">
          <mxGeometry width="50" height="50" relative="1" as="geometry">
            <mxPoint x="570" y="1850" as="sourcePoint" />
            <mxPoint x="570" y="2000" as="targetPoint" />
          </mxGeometry>
        </mxCell>
        <mxCell id="XJO1JK6r1yaedONheBAu-116" style="edgeStyle=orthogonalEdgeStyle;rounded=0;orthogonalLoop=1;jettySize=auto;html=1;" edge="1" parent="1" source="XJO1JK6r1yaedONheBAu-110">
          <mxGeometry relative="1" as="geometry">
            <mxPoint x="570.5" y="2200" as="targetPoint" />
          </mxGeometry>
        </mxCell>
        <mxCell id="XJO1JK6r1yaedONheBAu-110" value="มีสินค้า" style="rhombus;whiteSpace=wrap;html=1;" vertex="1" parent="1">
          <mxGeometry x="500.5" y="2000" width="140" height="80" as="geometry" />
        </mxCell>
        <mxCell id="XJO1JK6r1yaedONheBAu-112" value="ไม่" style="text;html=1;align=center;verticalAlign=middle;resizable=0;points=[];autosize=1;strokeColor=none;fillColor=none;" vertex="1" parent="1">
          <mxGeometry x="660" y="2018" width="40" height="30" as="geometry" />
        </mxCell>
        <mxCell id="XJO1JK6r1yaedONheBAu-114" value="" style="endArrow=classic;html=1;rounded=0;exitX=1;exitY=0.5;exitDx=0;exitDy=0;entryX=1;entryY=0.5;entryDx=0;entryDy=0;" edge="1" parent="1" source="XJO1JK6r1yaedONheBAu-110" target="XJO1JK6r1yaedONheBAu-33">
          <mxGeometry width="50" height="50" relative="1" as="geometry">
            <mxPoint x="590" y="2130" as="sourcePoint" />
            <mxPoint x="840" y="900" as="targetPoint" />
            <Array as="points">
              <mxPoint x="840" y="2040" />
              <mxPoint x="840" y="910" />
            </Array>
          </mxGeometry>
        </mxCell>
        <mxCell id="XJO1JK6r1yaedONheBAu-118" style="edgeStyle=orthogonalEdgeStyle;rounded=0;orthogonalLoop=1;jettySize=auto;html=1;" edge="1" parent="1" source="XJO1JK6r1yaedONheBAu-117">
          <mxGeometry relative="1" as="geometry">
            <mxPoint x="575" y="2360" as="targetPoint" />
          </mxGeometry>
        </mxCell>
        <mxCell id="XJO1JK6r1yaedONheBAu-117" value="t = จำนวนสินค้าที่เหลือ" style="rounded=0;whiteSpace=wrap;html=1;" vertex="1" parent="1">
          <mxGeometry x="515" y="2200" width="120" height="60" as="geometry" />
        </mxCell>
        <mxCell id="XJO1JK6r1yaedONheBAu-120" style="edgeStyle=orthogonalEdgeStyle;rounded=0;orthogonalLoop=1;jettySize=auto;html=1;" edge="1" parent="1" source="XJO1JK6r1yaedONheBAu-119">
          <mxGeometry relative="1" as="geometry">
            <mxPoint x="575" y="2500" as="targetPoint" />
          </mxGeometry>
        </mxCell>
        <mxCell id="XJO1JK6r1yaedONheBAu-119" value="แสดง t บนหน้าจอ" style="rounded=0;whiteSpace=wrap;html=1;" vertex="1" parent="1">
          <mxGeometry x="515" y="2360" width="120" height="60" as="geometry" />
        </mxCell>
        <mxCell id="XJO1JK6r1yaedONheBAu-123" style="edgeStyle=orthogonalEdgeStyle;rounded=0;orthogonalLoop=1;jettySize=auto;html=1;" edge="1" parent="1" source="XJO1JK6r1yaedONheBAu-121">
          <mxGeometry relative="1" as="geometry">
            <mxPoint x="575" y="2640" as="targetPoint" />
          </mxGeometry>
        </mxCell>
        <mxCell id="XJO1JK6r1yaedONheBAu-121" value="ระบุจำนวนของสินค้าที่ต้องการจะซื้อ" style="rounded=0;whiteSpace=wrap;html=1;" vertex="1" parent="1">
          <mxGeometry x="480" y="2500" width="190" height="60" as="geometry" />
        </mxCell>
        <mxCell id="XJO1JK6r1yaedONheBAu-125" style="edgeStyle=orthogonalEdgeStyle;rounded=0;orthogonalLoop=1;jettySize=auto;html=1;" edge="1" parent="1" source="XJO1JK6r1yaedONheBAu-124">
          <mxGeometry relative="1" as="geometry">
            <mxPoint x="581.5" y="2770" as="targetPoint" />
          </mxGeometry>
        </mxCell>
        <mxCell id="XJO1JK6r1yaedONheBAu-124" value="n = จำนวนสินค้าที่ลูกค้าเลือก" style="rounded=0;whiteSpace=wrap;html=1;" vertex="1" parent="1">
          <mxGeometry x="503" y="2640" width="157" height="60" as="geometry" />
        </mxCell>
        <mxCell id="XJO1JK6r1yaedONheBAu-127" style="edgeStyle=orthogonalEdgeStyle;rounded=0;orthogonalLoop=1;jettySize=auto;html=1;" edge="1" parent="1" source="XJO1JK6r1yaedONheBAu-126">
          <mxGeometry relative="1" as="geometry">
            <mxPoint x="581.5" y="2900" as="targetPoint" />
          </mxGeometry>
        </mxCell>
        <mxCell id="XJO1JK6r1yaedONheBAu-126" value="n" style="shape=parallelogram;perimeter=parallelogramPerimeter;whiteSpace=wrap;html=1;fixedSize=1;" vertex="1" parent="1">
          <mxGeometry x="516.5" y="2770" width="130" height="60" as="geometry" />
        </mxCell>
        <mxCell id="XJO1JK6r1yaedONheBAu-131" style="edgeStyle=orthogonalEdgeStyle;rounded=0;orthogonalLoop=1;jettySize=auto;html=1;" edge="1" parent="1" source="XJO1JK6r1yaedONheBAu-129">
          <mxGeometry relative="1" as="geometry">
            <mxPoint x="581.5" y="3030" as="targetPoint" />
          </mxGeometry>
        </mxCell>
        <mxCell id="XJO1JK6r1yaedONheBAu-129" value="n &amp;lt;= t" style="rhombus;whiteSpace=wrap;html=1;" vertex="1" parent="1">
          <mxGeometry x="516.5" y="2900" width="130" height="80" as="geometry" />
        </mxCell>
        <mxCell id="XJO1JK6r1yaedONheBAu-132" value="ไม่" style="text;html=1;align=center;verticalAlign=middle;resizable=0;points=[];autosize=1;strokeColor=none;fillColor=none;" vertex="1" parent="1">
          <mxGeometry x="645.5" y="2920" width="40" height="30" as="geometry" />
        </mxCell>
        <mxCell id="XJO1JK6r1yaedONheBAu-135" value="ใช่" style="text;html=1;align=center;verticalAlign=middle;resizable=0;points=[];autosize=1;strokeColor=none;fillColor=none;" vertex="1" parent="1">
          <mxGeometry x="585" y="2990" width="40" height="30" as="geometry" />
        </mxCell>
        <mxCell id="XJO1JK6r1yaedONheBAu-137" style="edgeStyle=orthogonalEdgeStyle;rounded=0;orthogonalLoop=1;jettySize=auto;html=1;" edge="1" parent="1" source="XJO1JK6r1yaedONheBAu-136">
          <mxGeometry relative="1" as="geometry">
            <mxPoint x="580" y="3170" as="targetPoint" />
          </mxGeometry>
        </mxCell>
        <mxCell id="XJO1JK6r1yaedONheBAu-136" value="คำนวณราคาของสินค้า&lt;div&gt;n * สินค้าที่ลูกค้าเลือก&lt;/div&gt;" style="rounded=0;whiteSpace=wrap;html=1;" vertex="1" parent="1">
          <mxGeometry x="500" y="3030" width="160" height="70" as="geometry" />
        </mxCell>
        <mxCell id="XJO1JK6r1yaedONheBAu-142" style="edgeStyle=orthogonalEdgeStyle;rounded=0;orthogonalLoop=1;jettySize=auto;html=1;" edge="1" parent="1" source="XJO1JK6r1yaedONheBAu-138">
          <mxGeometry relative="1" as="geometry">
            <mxPoint x="585" y="3330" as="targetPoint" />
          </mxGeometry>
        </mxCell>
        <mxCell id="XJO1JK6r1yaedONheBAu-138" value="P = ราคาที่ต้องจ่าย" style="rounded=0;whiteSpace=wrap;html=1;" vertex="1" parent="1">
          <mxGeometry x="500" y="3170" width="170" height="60" as="geometry" />
        </mxCell>
        <mxCell id="XJO1JK6r1yaedONheBAu-139" value="" style="endArrow=classic;html=1;rounded=0;exitX=1;exitY=0.5;exitDx=0;exitDy=0;" edge="1" parent="1" source="XJO1JK6r1yaedONheBAu-129">
          <mxGeometry width="50" height="50" relative="1" as="geometry">
            <mxPoint x="630" y="2880" as="sourcePoint" />
            <mxPoint x="920" y="3040" as="targetPoint" />
            <Array as="points">
              <mxPoint x="920" y="2940" />
            </Array>
          </mxGeometry>
        </mxCell>
        <mxCell id="XJO1JK6r1yaedONheBAu-140" value="เเสดงสินค้าไม่เพียงพอ" style="rounded=0;whiteSpace=wrap;html=1;" vertex="1" parent="1">
          <mxGeometry x="860" y="3040" width="120" height="60" as="geometry" />
        </mxCell>
        <mxCell id="XJO1JK6r1yaedONheBAu-141" value="" style="endArrow=classic;html=1;rounded=0;exitX=1;exitY=0.5;exitDx=0;exitDy=0;" edge="1" parent="1" source="XJO1JK6r1yaedONheBAu-140">
          <mxGeometry width="50" height="50" relative="1" as="geometry">
            <mxPoint x="770" y="3290" as="sourcePoint" />
            <mxPoint x="580" y="2460" as="targetPoint" />
            <Array as="points">
              <mxPoint x="1100" y="3070" />
              <mxPoint x="1100" y="2460" />
            </Array>
          </mxGeometry>
        </mxCell>
        <mxCell id="XJO1JK6r1yaedONheBAu-144" style="edgeStyle=orthogonalEdgeStyle;rounded=0;orthogonalLoop=1;jettySize=auto;html=1;" edge="1" parent="1" source="XJO1JK6r1yaedONheBAu-143">
          <mxGeometry relative="1" as="geometry">
            <mxPoint x="590" y="3449.9999999999995" as="targetPoint" />
          </mxGeometry>
        </mxCell>
        <mxCell id="XJO1JK6r1yaedONheBAu-143" value="ลูกค้าจ่ายเงิน" style="rounded=0;whiteSpace=wrap;html=1;" vertex="1" parent="1">
          <mxGeometry x="530" y="3330" width="120" height="60" as="geometry" />
        </mxCell>
        <mxCell id="XJO1JK6r1yaedONheBAu-145" value="จบ" style="ellipse;whiteSpace=wrap;html=1;" vertex="1" parent="1">
          <mxGeometry x="530" y="3450" width="120" height="80" as="geometry" />
        </mxCell>
      </root>
    </mxGraphModel>
  </diagram>
</mxfile>
